<?xml version="1.0" encoding="UTF-8"?>
<svg width="673px" height="844px" viewBox="0 0 673 844" version="1.1" xmlns="http://www.w3.org/2000/svg" xmlns:xlink="http://www.w3.org/1999/xlink">
    <!-- Generator: Sketch 49 (51002) - http://www.bohemiancoding.com/sketch -->
    <title>牛</title>
    <desc>Created with Sketch.</desc>
    <defs></defs>
    <g id="Page-1" stroke="none" stroke-width="1" fill="none" fill-rule="evenodd" fill-opacity="0.338088768" opacity="0.0883718297">
        <g id="niu" transform="translate(-172.000000, -281.000000)" fill="#FFFFFF">
            <g id="Page-1">
                <g id="加会页面-desktop">
                    <g id="牛">
                        <path d="M836.3,702.4 C844.700042,709.000033 846.500024,713.799985 841.7,716.8 C836.899976,719.800015 824.600099,719.800015 804.8,716.8 C772.399838,711.399973 737.600186,708.400003 700.4,707.8 C663.199814,707.199997 619.100255,710.199967 568.1,716.8 C566.899994,751.600174 566.150001,783.249857 565.85,811.75 C565.549998,840.250143 565.100003,863.49991 564.5,881.5 C563.299994,913.900162 561.800009,948.09982 560,984.1 C558.199991,1020.10018 555.200021,1054.59984 551,1087.6 C547.999985,1115.80014 544.250022,1127.65002 539.75,1123.15 C535.249977,1118.64998 532.700003,1102.30014 532.1,1074.1 C531.499997,1045.29986 531.349998,1010.35021 531.65,969.25 C531.950001,928.149795 532.699994,879.400282 533.9,823 C533.9,812.799949 534.049998,799.000087 534.35,781.6 C534.650001,764.199913 535.099997,744.400111 535.7,722.2 C506.899856,726.400021 477.50015,731.649969 447.5,737.95 C417.49985,744.250031 389.000135,750.699967 362,757.3 C334.999865,763.900033 311.000105,770.19997 290,776.2 C268.999895,782.20003 253.400051,786.999982 243.2,790.6 C219.799883,799.000042 202.700054,803.050002 191.9,802.75 C181.099946,802.449998 175.100006,799.000033 173.9,792.4 C172.699994,788.199979 172.249999,784.450016 172.55,781.15 C172.850001,777.849984 174.799982,775.000012 178.4,772.6 C182.000018,770.199988 187.999958,767.800012 196.4,765.4 C204.800042,762.999988 216.799922,760.300015 232.4,757.3 C239.600036,756.099994 251.149921,751.450041 267.05,743.35 C282.95008,735.24996 301.099898,725.350059 321.5,713.65 C341.900102,701.949942 362.749893,689.500066 384.05,676.3 C405.350106,663.099934 424.99991,651.100054 443,640.3 C458.600078,630.099949 474.649917,620.05005 491.15,610.15 C507.650082,600.24995 523.699922,590.200051 539.3,580 C539.900003,573.399967 540.2,566.650034 540.2,559.75 L540.2,539.5 C519.199895,544.300024 497.600111,549.849969 475.4,556.15 C453.199889,562.450032 430.700114,569.199964 407.9,576.4 C386.899895,583.000033 372.950035,585.700006 366.05,584.5 C359.149966,583.299994 355.100006,579.400033 353.9,572.8 C352.099991,564.399958 352.249989,558.25002 354.35,554.35 C356.45001,550.449981 362.599949,546.100024 372.8,541.3 C376.400018,539.499991 379.849983,535.300033 383.15,528.7 C386.450016,522.099967 387.950001,514.150046 387.65,504.85 C387.349998,495.549954 384.800024,485.350056 380,474.25 C375.199976,463.149944 366.80006,452.200054 354.8,441.4 C346.399958,433.599961 342.949993,428.200015 344.45,425.2 C345.950007,422.199985 351.799949,423.999967 362,430.6 C377.000075,440.800051 388.549959,449.949959 396.65,458.05 C404.75004,466.15004 410.449984,474.399958 413.75,482.8 C417.050016,491.200042 417.950007,500.499949 416.45,510.7 C414.949992,520.900051 412.100021,533.199928 407.9,547.6 C418.700054,545.799991 435.949882,542.350026 459.65,537.25 C483.350118,532.149974 510.499847,526.000036 541.1,518.8 C541.700003,507.399943 542.149999,496.450053 542.45,485.95 C542.750002,475.449948 542.9,465.100051 542.9,454.9 C544.100006,415.299802 544.250004,383.800117 543.35,360.4 C542.449995,336.999883 539.600024,320.500048 534.8,310.9 C525.199952,292.89991 522.34998,283.150007 526.25,281.65 C530.150019,280.149993 539.899922,286.899925 555.5,301.9 C574.100093,318.700084 581.600018,343.299838 578,375.7 C576.199991,394.300093 574.550007,413.6499 573.05,433.75 C571.549992,453.850101 570.500003,479.799841 569.9,511.6 C571.100006,511.6 571.999997,511.450001 572.6,511.15 C573.200003,510.849999 574.099994,510.7 575.3,510.7 C610.100174,502.299958 635.149923,497.05001 650.45,494.95 C665.750076,492.849989 675.499979,497.199946 679.7,508 C682.100012,514.600033 680.900024,520.449974 676.1,525.55 C671.299976,530.650026 659.000099,537.699955 639.2,546.7 C630.199955,551.500024 620.000057,556.749972 608.6,562.45 C597.199943,568.150029 584.300072,575.199958 569.9,583.6 C569.299997,602.800096 569,621.549908 569,639.85 C569,658.150091 568.700003,676.29991 568.1,694.3 C598.700153,689.499976 627.649863,685.900012 654.95,683.5 C682.250137,681.099988 706.099898,679.300006 726.5,678.1 C752.900132,676.899994 774.349917,677.949983 790.85,681.25 C807.350082,684.550017 822.499931,691.599946 836.3,702.4 Z M290,748.3 C324.200171,738.699952 363.049782,729.700042 406.55,721.3 C450.050218,712.899958 493.399784,705.400033 536.6,698.8 C537.200003,667.599844 538.099994,635.200168 539.3,601.6 C535.699982,602.800006 534.199997,603.4 534.8,603.4 C502.399838,623.200099 465.350209,645.09988 423.65,669.1 C381.949792,693.10012 337.400237,719.499856 290,748.3 Z M569.9,561.1 C580.100051,554.499967 589.999952,548.050032 599.6,541.75 C609.200048,535.449969 617.899961,529.900024 625.7,525.1 C617.299958,526.300006 608.450046,527.499994 599.15,528.7 C589.849953,529.900006 580.100051,531.699988 569.9,534.1 L569.9,561.1 Z"></path>
                    </g>
                </g>
            </g>
        </g>
    </g>
</svg>